<svg xmlns="http://www.w3.org/2000/svg" viewBox="0 0 27.62 27.62"><defs><style>.cls-1{fill:#fff;opacity:0.3;}</style></defs><title>Ativo 5</title><g id="Camada_2" data-name="Camada 2"><g id="Camada_1-2" data-name="Camada 1"><path class="cls-1" d="M22.9,0H4.72A4.72,4.72,0,0,0,0,4.72V22.9a4.72,4.72,0,0,0,4.72,4.72H22.9a4.72,4.72,0,0,0,4.72-4.72V4.72A4.72,4.72,0,0,0,22.9,0ZM23,9.09a4.69,4.69,0,0,1-1,.82h0c-.18,5.63-3.95,11.37-10.62,11.72A9.71,9.71,0,0,1,4.8,19.25a7.1,7.1,0,0,0,2,.3,6.11,6.11,0,0,0,3.73-1.36s-3.74-1-3.64-2.76l1.78-.05a5.69,5.69,0,0,1-1.77-.92c-1.07-1-1.69-2.31-1.38-3.07a2.25,2.25,0,0,0,.72.35,3.37,3.37,0,0,0,1,.17,4.55,4.55,0,0,1-1.43-1.67,4.32,4.32,0,0,1,.25-3.65s.2,1.11,3.37,2.72a12.35,12.35,0,0,0,4.82,1.43,5.13,5.13,0,0,1-.16-1.31A3.74,3.74,0,0,1,18.1,6a4.19,4.19,0,0,1,3.05,1.26l1.05-.47,1.26-.53h0s.07.07,0,.27A6.15,6.15,0,0,1,22,8.21v.08a2.58,2.58,0,0,0,.75-.1c.42-.12,1.42-.55,1.42-.55A6.91,6.91,0,0,1,23,9.09Z"/></g></g></svg>