<svg xmlns="http://www.w3.org/2000/svg" viewBox="0 0 27.62 27.62"><defs><style>.cls-1{fill:#fff;opacity:0.3;}</style></defs><title>Ativo 6</title><g id="Camada_2" data-name="Camada 2"><g id="Camada_1-2" data-name="Camada 1"><path class="cls-1" d="M22.9,0H4.72A4.72,4.72,0,0,0,0,4.72V22.9a4.72,4.72,0,0,0,4.72,4.72h10V17H11.11V12.88h3.57v-3c0-3.54,2.16-5.46,5.31-5.46a29.41,29.41,0,0,1,3.19.16v3.7H21c-1.72,0-2,.81-2,2v2.64H23L22.51,17H18.95v10.6H22.9a4.72,4.72,0,0,0,4.72-4.72V4.72A4.72,4.72,0,0,0,22.9,0Z"/></g></g></svg>